{"title":"Jakob the Liar (1999) MKV","uid":7024744,"size":1316466076,"categoryP":"video","categoryS":"movies","magnet":"?xt=urn:btih:54e2695eb3684ee8e7d1ab4c3e539599a7e5ac5c&amp;dn=Jakob+the+Liar+%281999%29+MKV&amp;tr=udp%3A%2F%2Ftracker.openbittorrent.com%3A80&amp;tr=udp%3A%2F%2Fopen.demonii.com%3A1337&amp;tr=udp%3A%2F%2Ftracker.coppersurfer.tk%3A6969&amp;tr=udp%3A%2F%2Fexodus.desync.com%3A6969","seeders":2,"leechers":0,"uploader":"gotosumeet","files":1,"time":1328955181,"description":"Jakob the Liar (1999)\n\nPG_13  \n\n120 min  -  Comedy | Drama | War  \nReleased : 24 September 1999 (USA) \n\n________________________________________________________________________________\n\nDirected by\nPeter Kassovitz\t \t\n \nWriting credits : Jurek Becker (novel \\\\\\&quot;Jakob der LÃƒÂ¼gner\\\\\\&quot;)\nPeter Kassovitz (screenplay) &amp; Didier Decoin (screenplay)\n\n\nPlot Summary \n\nIn 1944 Poland, a Jewish shop keeper named Jakob is summoned to ghetto headquarters after being caught out near curfew. While waiting for the German Kommondant, Jakob overhears a German radio broadcast about Russian troop movements. Returned to the ghetto, the shopkeeper shares his information with a friend and then rumors fly that there is a secret radio within the ghetto. Jakob uses the chance to spread hope throughout the ghetto by continuing to tell favorable tales of information from \\\\\\&quot;his secret radio.\\\\\\&quot; Jakob, however, has a real secret in that he is hiding a young Jewish girl who escaped from a camp transport train. A rather uplifting and slightly humorous film about World War II Jewish Ghetto life.\n\nDuring World War II in Nazi occupied Poland, poor Jewish cafÃƒÂ© owner Jakob (\\\\\\'Robin Williams\\\\\\' ) accidentally overhears a forbidden radio news bulletin signaling Soviet military successes against German forces. To fight the incredible depression and suicide throughout the ghetto, Jakob tells fictitious news bulletins about Allied advances against the Nazis. These lies keep hope and humor alive among the ghetto inhabitants. The Germans learn of the mythical radio, however, and begin a search for the resistance hero who dares operate it.\n\n________________________________________________________________________________\n\nMedia Info : \n\nFormat                           : Matroska\nFile size                        : 1.23 GiB\nDuration                         : 1h 55mn\nOverall bit rate                 : 1 523 Kbps\nEncoded date                     : UTC 2012-02-11 12:16:13\nWriting library                  : WonderShare Matroska Muxer\n\nVideo\nID                               : 1\nFormat                           : AVC\nFormat/Info                      : Advanced Video Codec\nFormat profile                   : &lt;a class=&quot;__cf_email__&quot; href=&quot;/cdn-cgi/l/email-protection&quot; data-cfemail=&quot;80c2e1f3e5ece9eee5c0ccb3aeb0&quot;&gt;[email&amp;#160;protected]&lt;/a&gt;&lt;script cf-hash='f9e31' type=&quot;text/javascript&quot;&gt;\n/* &lt;![CDATA[ */!function(){try{var t=&quot;currentScript&quot;in document?document.currentScript:function(){for(var t=document.getElementsByTagName(&quot;script&quot;),e=t.length;e--;)if(t[e].getAttribute(&quot;cf-hash&quot;))return t[e]}();if(t&amp;&amp;t.previousSibling){var e,r,n,i,c=t.previousSibling,a=c.getAttribute(&quot;data-cfemail&quot;);if(a){for(e=&quot;&quot;,r=parseInt(a.substr(0,2),16),n=2;a.length-n;n+=2)i=parseInt(a.substr(n,2),16)^r,e+=String.fromCharCode(i);e=document.createTextNode(e),c.parentNode.replaceChild(e,c)}}}catch(u){}}();/* ]]&gt; */&lt;/script&gt;\nFormat settings, CABAC           : No\nFormat settings, ReFrames        : 1 frame\nFormat settings, GOP             : M=1, N=25\nCodec ID                         : V_MPEG4/ISO/AVC\nDuration                         : 1h 55mn\nBit rate                         : 1 237 Kbps\nWidth                            : 720 pixels\nHeight                           : 576 pixels\nDisplay aspect ratio             : 5:4\nFrame rate                       : 29.970 fps\nOriginal frame rate              : 29.000 fps\nStandard                         : PAL\nColor space                      : YUV\nChroma subsampling               : 4:2:0\nBit depth                        : 8 bits\nScan type                        : Progressive\nBits/(Pixel*Frame)               : 0.100\nStream size                      : 1 019 MiB (81%)\n\nAudio\nID                               : 2\nFormat                           : AC-3\nFormat/Info                      : Audio Coding 3\nMode extension                   : CM (complete main)\nCodec ID                         : A_AC3\nDuration                         : 1h 55mn\nBit rate mode                    : Constant\nBit rate                         : 256 Kbps\nChannel(s)                       : 6 channels\nChannel positions                : Front: L C R, Side: L R, LFE\nSampling rate                    : 44.1 KHz\nBit depth                        : 16 bits\nCompression mode                 : Lossy\nDelay relative to video          : 31ms\nStream size                      : 211 MiB (17%)\n\nTest \n\nHard Coded English Subtitle","torrent":{"xt":"urn:btih:54e2695eb3684ee8e7d1ab4c3e539599a7e5ac5c","amp;dn":"Jakob+the+Liar+%281999%29+MKV","amp;tr":["udp%3A%2F%2Ftracker.openbittorrent.com%3A80","udp%3A%2F%2Fopen.demonii.com%3A1337","udp%3A%2F%2Ftracker.coppersurfer.tk%3A6969","udp%3A%2F%2Fexodus.desync.com%3A6969"],"infoHash":"54e2695eb3684ee8e7d1ab4c3e539599a7e5ac5c","infoHashBuffer":{"type":"Buffer","data":[84,226,105,94,179,104,78,232,231,209,171,76,62,83,149,153,167,229,172,92]},"announce":[],"urlList":[]}}